<svg width="275" height="55" viewBox="0 0 275 55" fill="none" xmlns="http://www.w3.org/2000/svg">
<path fill-rule="evenodd" clip-rule="evenodd" d="M125.696 33.1274V10.479H119.131V33.1274H125.696ZM119.463 6.27075C120.222 6.97243 121.205 7.3242 122.414 7.3242V7.32606C123.619 7.32606 124.602 6.96873 125.358 6.25408C126.117 5.53574 126.496 4.63039 126.496 3.53435C126.496 2.52533 126.115 1.68479 125.358 1.01087C124.6 0.336958 123.623 0 122.414 0C121.205 0 120.22 0.351769 119.463 1.05346C118.705 1.75329 118.328 2.62161 118.328 3.66025C118.328 4.6989 118.707 5.56906 119.463 6.27075ZM115.936 1.89355V33.1288H109.659V30.5183C108.032 32.4827 105.675 33.4658 102.589 33.4658C100.454 33.4658 98.525 32.9899 96.7995 32.0346C95.0739 31.0811 93.7187 29.7203 92.7374 27.9541C91.7543 26.186 91.2637 24.1346 91.2637 21.8055C91.2637 19.4765 91.7543 17.4269 92.7374 15.6607C93.7187 13.8926 95.0721 12.5299 96.7995 11.5765C98.525 10.623 100.454 10.1453 102.589 10.1453C105.479 10.1453 107.738 11.0581 109.365 12.8799V1.89355H115.934H115.936ZM103.727 28.0763C105.383 28.0763 106.756 27.5079 107.851 26.3711C108.947 25.2344 109.495 23.7125 109.495 21.8037C109.495 19.8949 108.947 18.373 107.851 17.2362C106.756 16.0995 105.383 15.5311 103.727 15.5311C102.072 15.5311 100.654 16.0995 99.5581 17.2362C98.462 18.373 97.914 19.8949 97.914 21.8037C97.914 23.7125 98.462 25.2344 99.5581 26.3711C100.654 27.5079 102.043 28.0763 103.727 28.0763ZM26.4808 20.4821C25.5273 19.2324 24.2091 18.34 22.528 17.805H22.5299C23.7629 17.1607 24.7238 16.2776 25.4107 15.1556C26.0994 14.0318 26.4438 12.7543 26.4438 11.325C26.4438 8.96817 25.4829 7.10009 23.5593 5.72449C21.6357 4.34888 18.877 3.66016 15.2853 3.66016H0.890533V33.131H16.1277C19.9712 33.131 22.8983 32.4367 24.9034 31.0482C26.9103 29.6596 27.9157 27.673 27.9157 25.0884C27.9157 23.2648 27.438 21.73 26.4808 20.4821ZM7.66672 15.7444V8.79784H14.4429C16.1277 8.79784 17.4033 9.08666 18.2735 9.66245C19.1455 10.2364 19.5806 11.1028 19.5806 12.2507C19.5806 13.3986 19.1455 14.2706 18.2735 14.8612C17.4033 15.45 16.1258 15.7444 14.4429 15.7444H7.66672ZM19.6861 27.1083C18.7734 27.6971 17.4181 27.9915 15.6241 27.9915H7.66857V20.7099H15.626C19.2455 20.7099 21.0562 21.9318 21.0562 24.3738C21.0562 25.6087 20.5989 26.5196 19.6861 27.1083ZM34.1216 31.9718C36.0174 32.966 38.1577 33.464 40.5442 33.464C42.9269 33.464 45.0579 32.9678 46.9389 31.9718C48.8218 30.9738 50.2956 29.5908 51.3601 27.8246C52.4265 26.0565 52.9616 24.0477 52.9616 21.8038C52.9616 19.5599 52.4265 17.5529 51.3601 15.7867C50.2956 14.0167 48.8218 12.6356 46.9389 11.6395C45.0598 10.6434 42.9306 10.1436 40.5442 10.1436C38.1577 10.1436 36.0156 10.6416 34.1216 11.6395C32.2294 12.6356 30.7483 14.0186 29.6819 15.7867C28.6136 17.5529 28.0804 19.5599 28.0804 21.8038C28.0804 24.0477 28.6136 26.0565 29.6819 27.8246C30.7483 29.5927 32.2294 30.9738 34.1216 31.9718ZM44.6913 26.3712C43.6101 27.508 42.2271 28.0764 40.5442 28.0764C38.8594 28.0764 37.4708 27.508 36.3748 26.3712C35.2824 25.2345 34.7363 23.7126 34.7363 21.8038C34.7363 19.895 35.2806 18.3731 36.3748 17.2363C37.4708 16.0996 38.8594 15.5312 40.5442 15.5312C42.2289 15.5312 43.6119 16.0996 44.6913 17.2363C45.7707 18.3731 46.3113 19.895 46.3113 21.8038C46.3113 23.7126 45.7707 25.2345 44.6913 26.3712ZM63.6091 10.1435C67.1157 10.1435 69.8095 10.9803 71.6906 12.6503C73.5734 14.3202 74.514 16.8363 74.514 20.2022V33.1269H68.3654V30.3072C67.1305 32.4104 64.831 33.462 61.4652 33.462C59.723 33.462 58.2141 33.1677 56.9366 32.5789C55.661 31.9902 54.6853 31.1774 54.0132 30.1369C53.3393 29.0983 53.0023 27.9189 53.0023 26.6007C53.0023 24.4975 53.7948 22.8423 55.3777 21.637C56.9644 20.4281 59.4138 19.8245 62.726 19.8245H67.9451C67.9451 18.3952 67.5101 17.2936 66.6417 16.5234C65.7716 15.7495 64.4682 15.3626 62.726 15.3626C61.5189 15.3626 60.334 15.5533 59.1694 15.9328C58.0049 16.3105 57.0144 16.8234 56.1997 17.4677L53.8429 12.878C55.0778 12.0097 56.5571 11.3376 58.2826 10.86C60.01 10.3823 61.7855 10.1416 63.6091 10.1416V10.1435ZM63.1037 29.0446C64.2275 29.0446 65.2235 28.7854 66.0937 28.2688C66.962 27.7504 67.5804 26.9839 67.9451 25.9731V23.6551H63.4406C60.7487 23.6551 59.4027 24.5401 59.4027 26.3082C59.4027 27.1487 59.7323 27.8152 60.3895 28.3059C61.0505 28.7983 61.9558 29.0427 63.1055 29.0427L63.1037 29.0446ZM87.037 10.9878C85.7039 11.5506 84.6449 12.3764 83.8581 13.4687V10.4787H77.5855V33.127H84.1506V22.4351C84.1506 20.33 84.6838 18.7508 85.7521 17.6992C86.8204 16.6476 88.2922 16.1218 90.1733 16.1218C90.425 16.1218 90.9157 16.1514 91.647 16.2069V10.1436C89.9048 10.1436 88.3681 10.425 87.037 10.9878ZM142.705 10.1435C145.51 10.1435 147.776 10.9858 149.502 12.6706C151.229 14.3554 152.094 16.8511 152.094 20.1615V33.1288H145.525V21.1723C145.525 19.3783 145.131 18.0379 144.344 17.1529C143.559 16.2679 142.422 15.8255 140.934 15.8255C139.277 15.8255 137.958 16.3383 136.975 17.364C135.992 18.3878 135.501 19.9097 135.501 21.9314V33.1288H128.936V10.4786H135.209V13.1316C136.077 12.1782 137.158 11.4413 138.449 10.921C139.739 10.4027 141.158 10.1416 142.703 10.1416L142.705 10.1435ZM178.527 29.3408V10.4786L178.525 10.4767H172.295V13.3816C170.582 11.221 168.083 10.1416 164.8 10.1416C162.723 10.1416 160.821 10.5989 159.096 11.5117C157.369 12.4207 156.002 13.7056 154.991 15.3607C153.98 17.0178 153.475 18.9284 153.475 21.089C153.475 23.2496 153.98 25.1584 154.991 26.8136C156.002 28.4706 157.37 29.7537 159.096 30.6664C160.821 31.5773 162.723 32.0328 164.8 32.0328C167.861 32.0328 170.245 31.0941 171.956 29.213V30.1813C171.956 32.2605 171.415 33.8101 170.336 34.8339C169.255 35.8559 167.579 36.3688 165.306 36.3688C163.847 36.3688 162.388 36.1373 160.927 35.6745C159.466 35.2116 158.259 34.5877 157.306 33.8046L154.699 38.5183C155.989 39.5291 157.618 40.2993 159.583 40.8325C161.547 41.3657 163.624 41.6342 165.813 41.6342C169.966 41.6342 173.122 40.6233 175.283 38.6016C177.445 36.5798 178.527 33.4935 178.527 29.3408ZM170.38 25.1103C169.271 26.1341 167.848 26.6451 166.107 26.6451C164.369 26.6451 162.938 26.1341 161.814 25.1103C160.694 24.0865 160.133 22.746 160.133 21.0909C160.133 19.4357 160.692 18.0953 161.814 17.0715C162.938 16.0458 164.367 15.5329 166.107 15.5329C167.848 15.5329 169.271 16.0458 170.38 17.0715C171.489 18.0953 172.043 19.4339 172.043 21.0909C172.043 22.7479 171.487 24.0865 170.38 25.1103ZM194.441 3.66016C198.146 3.66016 201.051 4.53773 203.154 6.29102C205.261 8.04431 206.313 10.4808 206.313 13.5967C206.313 16.7126 205.259 19.1028 203.154 20.8598C201.051 22.6131 198.146 23.4907 194.441 23.4907H186.021V33.1292H183.877V3.66016H194.441ZM194.441 21.5541C197.583 21.5541 199.983 20.8672 201.64 19.4898C203.295 18.1142 204.124 16.1498 204.124 13.5967C204.124 11.0436 203.297 9.07185 201.64 7.68328C199.983 6.29287 197.583 5.59674 194.441 5.59674H186.021V21.5541H194.441ZM224.114 13.0707C222.657 11.6803 220.567 10.9842 217.847 10.9842L217.843 10.9805C216.158 10.9805 214.542 11.2545 212.998 11.8025C211.456 12.3505 210.138 13.117 209.045 14.0983L210.099 15.6146C211.024 14.7703 212.152 14.0964 213.485 13.5928C214.82 13.0874 216.216 12.8337 217.675 12.8337C219.809 12.8337 221.429 13.3688 222.538 14.4352C223.647 15.5035 224.201 17.0605 224.201 19.11V20.8763H216.664C213.802 20.8763 211.717 21.4447 210.412 22.5814C209.108 23.7182 208.457 25.1401 208.457 27.0211C208.457 28.9022 209.164 30.4203 210.582 31.5719C211.998 32.7217 213.927 33.2956 216.371 33.2956C218.252 33.2956 219.865 32.9383 221.213 32.2236C222.559 31.5071 223.584 30.5018 224.286 29.2114V33.1271H226.304V19.1915C226.304 16.4995 225.575 14.4593 224.114 13.0707ZM221.318 30.3093C220.041 31.1498 218.491 31.5701 216.666 31.5701L216.668 31.5719C214.733 31.5719 213.229 31.1572 212.163 30.3296C211.098 29.502 210.565 28.319 210.565 26.9434C210.565 25.5678 211.049 24.4884 212.015 23.7034C212.983 22.9166 214.548 22.5222 216.708 22.5222H224.203V26.6453C223.557 28.2449 222.596 29.4669 221.318 30.3093ZM237.674 33.2975C235.904 33.2975 234.219 33.0309 232.621 32.4996C231.022 31.9645 229.772 31.2906 228.876 30.4741L229.844 28.7931C230.74 29.5521 231.897 30.1835 233.316 30.687C234.732 31.1906 236.213 31.4424 237.755 31.4424C239.973 31.4424 241.61 31.0795 242.662 30.3501C243.713 29.6206 244.239 28.6098 244.239 27.3175C244.239 26.3918 243.95 25.6623 243.374 25.1309C242.8 24.5959 242.091 24.2034 241.249 23.9497C240.408 23.698 239.244 23.4313 237.753 23.1481C236.015 22.8389 234.612 22.5038 233.545 22.1409C232.477 21.7762 231.564 21.1874 230.807 20.3747C230.052 19.56 229.672 18.4362 229.672 17.0032C229.672 15.2629 230.394 13.8243 231.84 12.6876C233.284 11.5508 235.341 10.9824 238.007 10.9824C239.41 10.9824 240.799 11.1787 242.173 11.573C243.548 11.9674 244.67 12.4858 245.54 13.1319L244.572 14.813C243.674 14.1687 242.649 13.6762 241.499 13.3393C240.349 13.0023 239.172 12.8338 237.966 12.8338C235.917 12.8338 234.373 13.2134 233.334 13.9725C232.297 14.7315 231.779 15.7276 231.779 16.9625C231.779 17.9456 232.073 18.7102 232.662 19.2583C233.251 19.8063 233.973 20.2136 234.83 20.4802C235.687 20.7449 236.885 21.0319 238.429 21.3411C240.142 21.6503 241.523 21.9798 242.576 22.3316C243.628 22.6815 244.518 23.2499 245.25 24.0368C245.979 24.8218 246.346 25.9011 246.346 27.2767C246.346 29.1004 245.587 30.5593 244.07 31.6553C242.556 32.7514 240.423 33.2994 237.676 33.2994L237.674 33.2975ZM249.88 32.4996C251.478 33.0309 253.163 33.2975 254.933 33.2975L254.935 33.2994C257.682 33.2994 259.815 32.7514 261.329 31.6553C262.846 30.5593 263.605 29.1004 263.605 27.2767C263.605 25.9011 263.238 24.8218 262.509 24.0368C261.777 23.2499 260.887 22.6815 259.835 22.3316C258.782 21.9798 257.401 21.6503 255.688 21.3411C254.144 21.0319 252.946 20.7449 252.089 20.4802C251.232 20.2136 250.51 19.8063 249.921 19.2583C249.332 18.7102 249.038 17.9456 249.038 16.9625C249.038 15.7276 249.556 14.7315 250.593 13.9725C251.632 13.2134 253.176 12.8338 255.225 12.8338C256.431 12.8338 257.608 13.0023 258.758 13.3393C259.907 13.6762 260.933 14.1687 261.831 14.813L262.799 13.1319C261.929 12.4858 260.807 11.9674 259.432 11.573C258.058 11.1787 256.669 10.9824 255.266 10.9824C252.6 10.9824 250.543 11.5508 249.099 12.6876C247.653 13.8243 246.931 15.2629 246.931 17.0032C246.931 18.4362 247.31 19.56 248.066 20.3747C248.823 21.1874 249.736 21.7762 250.804 22.1409C251.87 22.5038 253.274 22.8389 255.012 23.1481C256.503 23.4313 257.667 23.698 258.508 23.9497C259.35 24.2034 260.059 24.5959 260.633 25.1309C261.209 25.6623 261.498 26.3918 261.498 27.3175C261.498 28.6098 260.972 29.6206 259.92 30.3501C258.869 31.0795 257.232 31.4424 255.014 31.4424C253.472 31.4424 251.991 31.1906 250.574 30.687C249.156 30.1835 247.999 29.5521 247.103 28.7931L246.135 30.4741C247.031 31.2906 248.281 31.9645 249.88 32.4996ZM264.229 0.655421H261.918V0.0537109H267.237V0.655421H264.927V6.63365H264.229V0.655421ZM274.541 6.63365V0.0537109H274.539H273.965L271.134 4.93219L268.276 0.0537109H267.706V6.63365H268.372V1.39969L270.957 5.79681H271.284L273.869 1.36822V6.63365H274.541ZM2.29576 47.1279C3.07705 47.1279 3.68987 47.3168 4.13236 47.6908C4.5767 48.0647 4.79887 48.5776 4.79887 49.2293C4.79887 49.881 4.5767 50.3938 4.13236 50.7641C3.68987 51.1344 3.07705 51.3195 2.29576 51.3195H0.647996V53.2561H0V47.1279H2.29576ZM2.27539 50.7549C2.88266 50.7549 3.34551 50.6234 3.66766 50.3568C3.98795 50.0902 4.14902 49.7144 4.14902 49.2311C4.14902 48.7479 3.98795 48.3554 3.66766 48.0888C3.34551 47.8222 2.88266 47.6871 2.27539 47.6871H0.647996V50.753H2.27539V50.7549ZM6.83541 52.9986C7.19273 53.2004 7.59264 53.3004 8.03883 53.3004C8.48132 53.3004 8.87938 53.1986 9.23485 52.9986C9.59217 52.7987 9.87173 52.521 10.0717 52.1655C10.2753 51.8082 10.3772 51.4045 10.3772 50.9547C10.3772 50.5048 10.2735 50.103 10.0717 49.7475C9.87173 49.3902 9.59217 49.1125 9.23485 48.9144C8.87938 48.7181 8.48502 48.6182 8.03883 48.6182C7.59264 48.6182 7.19273 48.7163 6.83541 48.9144C6.48179 49.1125 6.20038 49.3902 5.99487 49.7475C5.79121 50.103 5.68938 50.5048 5.68938 50.9547C5.68938 51.4045 5.79121 51.8082 5.99487 52.1655C6.20038 52.521 6.47994 52.7987 6.83541 52.9986ZM8.91825 52.5284C8.65721 52.6746 8.36468 52.7487 8.03883 52.7487C7.71113 52.7487 7.41861 52.6746 7.15941 52.5284C6.90021 52.3802 6.6947 52.1673 6.54659 51.8915C6.39663 51.6175 6.32257 51.3027 6.32257 50.9547C6.32257 50.6066 6.39663 50.2937 6.54659 50.0178C6.6947 49.742 6.89836 49.5309 7.15941 49.3846C7.41861 49.2365 7.71298 49.1606 8.03883 49.1606C8.36468 49.1606 8.65721 49.2365 8.91825 49.3846C9.17745 49.5309 9.37926 49.7438 9.52367 50.0178C9.66993 50.2937 9.74399 50.6047 9.74399 50.9547C9.74399 51.3046 9.66993 51.6175 9.52367 51.8915C9.37926 52.1673 9.17745 52.3802 8.91825 52.5284ZM18.405 48.6514L16.6609 53.2577H16.074L14.6244 49.4845L13.171 53.2577H12.5841L10.8475 48.6514H11.4455L12.8877 52.5671L14.3689 48.6514H14.9021L16.3758 52.5671L17.8384 48.6514H18.405ZM19.5028 51.1472H23.3482L23.3593 50.9547C23.3593 50.4992 23.2631 50.0974 23.0705 49.7438C22.878 49.3884 22.6114 49.1125 22.2725 48.9144C21.9337 48.7181 21.5542 48.6182 21.1265 48.6182C20.6988 48.6182 20.3137 48.7163 19.9731 48.9144C19.6343 49.1125 19.3658 49.3902 19.1677 49.7475C18.9733 50.103 18.8752 50.5048 18.8752 50.9547C18.8752 51.4045 18.977 51.8082 19.1807 52.1655C19.3862 52.521 19.6732 52.7987 20.0379 52.9986C20.4026 53.2004 20.821 53.3004 21.295 53.3004C21.6634 53.3004 21.9985 53.2374 22.3059 53.1078C22.6132 52.9801 22.8687 52.7931 23.0742 52.5487L22.7224 52.147C22.5484 52.3469 22.3411 52.4969 22.1022 52.5987C21.8634 52.6987 21.5986 52.7487 21.3117 52.7487C20.8044 52.7487 20.3841 52.6006 20.0508 52.308C19.7194 52.0137 19.5362 51.6249 19.5028 51.1472ZM20.012 49.5772C20.3119 49.2921 20.684 49.1495 21.1302 49.1495H21.1321C21.5801 49.1495 21.956 49.2921 22.254 49.5772C22.554 49.8605 22.7261 50.2289 22.7669 50.6843H19.5028C19.5417 50.2289 19.7102 49.8605 20.012 49.5772ZM25.2274 49.555C25.3736 49.2439 25.5902 49.0107 25.8791 48.8533C26.1697 48.6978 26.5271 48.6182 26.951 48.6182V49.2236L26.8048 49.2125C26.3179 49.2125 25.9383 49.3624 25.6625 49.6605C25.3903 49.9586 25.2533 50.377 25.2533 50.9139V53.2597H24.6331V48.6533H25.2274V49.555ZM28.3026 51.1472H32.148L32.1591 50.9547C32.1591 50.4992 32.0628 50.0974 31.8703 49.7438C31.6777 49.3884 31.4111 49.1125 31.0723 48.9144C30.7335 48.7181 30.354 48.6182 29.9263 48.6182C29.4986 48.6182 29.1135 48.7163 28.7728 48.9144C28.434 49.1125 28.1656 49.3902 27.9675 49.7475C27.7731 50.103 27.6749 50.5048 27.6749 50.9547C27.6749 51.4045 27.7768 51.8082 27.9804 52.1655C28.1859 52.521 28.4729 52.7987 28.8376 52.9986C29.2024 53.2004 29.6208 53.3004 30.0948 53.3004C30.4632 53.3004 30.7983 53.2374 31.1056 53.1078C31.413 52.9801 31.6685 52.7931 31.874 52.5487L31.5222 52.147C31.3482 52.3469 31.1408 52.4969 30.902 52.5987C30.6631 52.6987 30.3984 52.7487 30.1114 52.7487C29.6041 52.7487 29.1839 52.6006 28.8506 52.308C28.5192 52.0137 28.3359 51.6249 28.3026 51.1472ZM28.8117 49.5772C29.1116 49.2921 29.4838 49.1495 29.93 49.1495H29.9318C30.3799 49.1495 30.7557 49.2921 31.0538 49.5772C31.3537 49.8605 31.5259 50.2289 31.5666 50.6843H28.3026C28.3415 50.2289 28.5099 49.8605 28.8117 49.5772ZM37.6337 46.7637V53.2584H37.0394V52.3475C36.8506 52.6567 36.6044 52.8937 36.2989 53.0566C35.9915 53.2196 35.6472 53.2992 35.2621 53.2992C34.8307 53.2992 34.4382 53.201 34.0901 53.0029C33.7402 52.8048 33.4643 52.529 33.2644 52.1735C33.0663 51.8162 32.9682 51.4089 32.9682 50.9553C32.9682 50.5017 33.0663 50.0944 33.2644 49.7407C33.4643 49.3834 33.7402 49.1076 34.0901 48.9113C34.44 48.7169 34.8307 48.6188 35.2621 48.6188C35.6342 48.6188 35.9712 48.6966 36.2729 48.8502C36.5747 49.0039 36.821 49.2316 37.0135 49.5297V46.7637H37.6337ZM35.3158 52.7493C35.6361 52.7493 35.9267 52.6752 36.1878 52.529C36.447 52.3809 36.6506 52.168 36.7969 51.8921C36.945 51.6181 37.0209 51.3052 37.0209 50.9553C37.0209 50.6054 36.945 50.2943 36.7969 50.0185C36.6506 49.7445 36.447 49.5315 36.1878 49.3853C35.9267 49.2372 35.6379 49.1613 35.3158 49.1613C34.9936 49.1613 34.6955 49.2372 34.4363 49.3853C34.1753 49.5315 33.9716 49.7426 33.8235 50.0185C33.6736 50.2943 33.5995 50.6072 33.5995 50.9553C33.5995 51.3033 33.6736 51.6181 33.8235 51.8921C33.9716 52.168 34.1771 52.3809 34.4363 52.529C34.6955 52.6752 34.9881 52.7493 35.3158 52.7493ZM45.2079 48.9113C44.858 48.7169 44.4674 48.6188 44.036 48.6188C43.662 48.6188 43.325 48.6947 43.0251 48.8502C42.7252 49.0057 42.4771 49.2316 42.2845 49.5297V46.7637H41.6643V53.2584H42.2586V52.3475C42.4456 52.6549 42.6918 52.8919 42.9992 53.0566C43.3047 53.2177 43.6509 53.2992 44.036 53.2992C44.4674 53.2992 44.858 53.201 45.2079 53.0029C45.5578 52.8048 45.8318 52.529 46.0299 52.1735C46.2318 51.818 46.3317 51.4107 46.3317 50.9553C46.3317 50.4998 46.2299 50.0962 46.0299 49.7407C45.83 49.3834 45.5578 49.1076 45.2079 48.9113ZM44.8654 52.529C44.6025 52.6752 44.3118 52.7493 43.9934 52.7493C43.6638 52.7493 43.3695 52.6752 43.1103 52.529C42.8511 52.3809 42.6456 52.168 42.4974 51.8921C42.3512 51.6181 42.2771 51.3033 42.2771 50.9553C42.2771 50.6072 42.3512 50.2943 42.4974 50.0185C42.6456 49.7426 42.8492 49.5315 43.1103 49.3853C43.3695 49.2372 43.6749 49.1613 43.9934 49.1613C44.3118 49.1613 44.6025 49.2372 44.8654 49.3853C45.1283 49.5315 45.3357 49.7445 45.4819 50.0185C45.63 50.2943 45.7059 50.6054 45.7059 50.9553C45.7059 51.3052 45.63 51.6181 45.4819 51.8921C45.3357 52.168 45.1302 52.3809 44.8654 52.529ZM51.4693 48.6514L49.1662 53.8076C48.9773 54.2389 48.7626 54.5444 48.5182 54.7259C48.2738 54.9073 47.9794 54.9999 47.6351 54.9999C47.4129 54.9999 47.2074 54.9628 47.0148 54.8925C46.8223 54.8221 46.6557 54.7185 46.5131 54.5796L46.8019 54.113C47.0352 54.3463 47.3166 54.4648 47.6425 54.4648C47.8535 54.4648 48.0331 54.4056 48.1831 54.2871C48.3312 54.1704 48.4701 53.9742 48.5997 53.6965L48.7996 53.2484L46.739 48.6514H47.387L49.1236 52.5671L50.8547 48.6514H51.4675H51.4693ZM59.7082 50.192H59.088L59.0861 50.1902V52.2582C58.6473 52.5748 58.1141 52.7322 57.4809 52.7322C56.9866 52.7322 56.5404 52.6229 56.1424 52.4007C55.7462 52.1767 55.4333 51.8731 55.2055 51.4898C54.9797 51.1048 54.8667 50.6678 54.8667 50.1902C54.8667 49.7125 54.9797 49.2793 55.2055 48.8905C55.4333 48.5017 55.7462 48.198 56.1461 47.9796C56.5478 47.7611 56.9959 47.6519 57.492 47.6519C58.2382 47.6519 58.8528 47.8925 59.3398 48.3702L59.7415 47.961C59.4749 47.6685 59.1454 47.4482 58.7547 47.2982C58.3622 47.1501 57.9345 47.0742 57.4661 47.0742C56.8459 47.0742 56.2905 47.2094 55.7998 47.4797C55.3111 47.7481 54.926 48.1184 54.6464 48.5942C54.3668 49.0719 54.2261 49.5996 54.2261 50.192C54.2261 50.7845 54.365 51.3177 54.6464 51.7935C54.926 52.2693 55.3111 52.6414 55.7998 52.9117C56.2905 53.1802 56.844 53.3135 57.4587 53.3135C57.8919 53.3135 58.303 53.2468 58.6936 53.1135C59.0843 52.9765 59.4231 52.784 59.7082 52.534V50.192ZM62.0039 49.555C62.1502 49.2439 62.3668 49.0107 62.6557 48.8533C62.9463 48.6978 63.3036 48.6182 63.7276 48.6182V49.2236L63.5814 49.2125C63.0944 49.2125 62.7149 49.3624 62.439 49.6605C62.1669 49.9586 62.0299 50.377 62.0299 50.9139V53.2597H61.4096V48.6533H62.0039V49.555ZM65.081 51.1472H68.9264L68.9375 50.9547C68.9375 50.4992 68.8412 50.0974 68.6487 49.7438C68.4561 49.3884 68.1895 49.1125 67.8507 48.9144C67.5119 48.7181 67.1324 48.6182 66.7047 48.6182C66.277 48.6182 65.8919 48.7163 65.5513 48.9144C65.2125 49.1125 64.944 49.3902 64.7459 49.7475C64.5515 50.103 64.4534 50.5048 64.4534 50.9547C64.4534 51.4045 64.5552 51.8082 64.7589 52.1655C64.9644 52.521 65.2513 52.7987 65.6161 52.9986C65.9808 53.2004 66.3992 53.3004 66.8732 53.3004C67.2416 53.3004 67.5767 53.2374 67.8841 53.1078C68.1914 52.9801 68.4469 52.7931 68.6524 52.5487L68.3006 52.147C68.1266 52.3469 67.9192 52.4969 67.6804 52.5987C67.4416 52.6987 67.1768 52.7487 66.8898 52.7487C66.3826 52.7487 65.9623 52.6006 65.629 52.308C65.2976 52.0137 65.1143 51.6249 65.081 51.1472ZM65.5901 49.5772C65.8901 49.2921 66.2622 49.1495 66.7084 49.1495H66.7103C67.1583 49.1495 67.5341 49.2921 67.8322 49.5772C68.1321 49.8605 68.3043 50.2289 68.3451 50.6843H65.081C65.1199 50.2289 65.2884 49.8605 65.5901 49.5772ZM71.8183 48.6181C72.42 48.6181 72.881 48.768 73.2032 49.0698C73.5235 49.3716 73.6845 49.8159 73.6845 50.4047V53.2596H73.0902V52.5412C72.9477 52.78 72.7403 52.967 72.47 53.1003C72.1997 53.2336 71.8775 53.3003 71.5054 53.3003C70.9907 53.3003 70.5816 53.1781 70.2779 52.9337C69.9743 52.6893 69.8225 52.3653 69.8225 51.9617C69.8225 51.5581 69.9632 51.2563 70.2465 51.0175C70.5297 50.7787 70.9796 50.6583 71.5998 50.6583H73.0625V50.3769C73.0625 49.9807 72.9514 49.6808 72.7274 49.4734C72.5052 49.2642 72.183 49.1605 71.7591 49.1605C71.4665 49.1605 71.1851 49.2105 70.9148 49.3068C70.6464 49.4031 70.4168 49.5327 70.2242 49.7011L69.9465 49.2383C70.1779 49.0402 70.4575 48.8865 70.7834 48.7791C71.1129 48.6718 71.4573 48.6162 71.8165 48.6162L71.8183 48.6181ZM71.6035 52.8097C71.9535 52.8097 72.2534 52.7301 72.5015 52.5708C72.7533 52.4079 72.9421 52.1765 73.0643 51.8729V51.1212H71.6183C70.8315 51.1212 70.4371 51.3952 70.4371 51.9432C70.4371 52.2135 70.539 52.4246 70.7426 52.5801C70.9481 52.7338 71.2351 52.8115 71.6035 52.8115V52.8097ZM77.802 52.9784L77.8039 52.9767L77.8021 52.9786L77.802 52.9784ZM77.802 52.9784C77.6839 53.0831 77.5383 53.164 77.3689 53.2192C77.1967 53.2729 77.0171 53.3007 76.8319 53.3007C76.4006 53.3007 76.0654 53.1841 75.8322 52.9526C75.597 52.7194 75.4804 52.388 75.4804 51.9621V49.1776H74.6584V48.6537H75.4804V47.6465H76.1006V48.6537H77.5003V49.1776H76.1006V51.927C76.1006 52.2028 76.1673 52.412 76.3043 52.5564C76.4431 52.699 76.6412 52.7694 76.8986 52.7694C77.0263 52.7694 77.1504 52.749 77.2689 52.7083C77.3892 52.6675 77.4929 52.6101 77.5818 52.5342L77.802 52.9784ZM85.6743 50.192H86.2945V52.534C86.0094 52.784 85.6706 52.9765 85.28 53.1135C84.8893 53.2468 84.4783 53.3135 84.0451 53.3135C83.4304 53.3135 82.8768 53.1802 82.3862 52.9117C81.8974 52.6414 81.5123 52.2693 81.2328 51.7935C80.9514 51.3177 80.8125 50.7845 80.8125 50.192C80.8125 49.5996 80.9532 49.0719 81.2328 48.5942C81.5123 48.1184 81.8974 47.7481 82.3862 47.4797C82.8768 47.2094 83.4323 47.0742 84.0525 47.0742C84.5209 47.0742 84.9486 47.1501 85.3411 47.2982C85.7317 47.4482 86.0613 47.6685 86.3279 47.961L85.9261 48.3702C85.4392 47.8925 84.8245 47.6519 84.0784 47.6519C83.5822 47.6519 83.1342 47.7611 82.7324 47.9796C82.3325 48.198 82.0196 48.5017 81.7919 48.8905C81.566 49.2793 81.4531 49.7125 81.4531 50.1902C81.4531 50.6678 81.566 51.1048 81.7919 51.4898C82.0196 51.8731 82.3325 52.1767 82.7287 52.4007C83.1268 52.6229 83.573 52.7322 84.0673 52.7322C84.7005 52.7322 85.2337 52.5748 85.6725 52.2582V50.1902L85.6743 50.192ZM89.2401 48.8533C88.9513 49.0107 88.7347 49.2439 88.5884 49.555V48.6533H87.9941V53.2597H88.6143V50.9139C88.6143 50.377 88.7514 49.9586 89.0235 49.6605C89.2994 49.3624 89.6789 49.2125 90.1658 49.2125L90.3121 49.2236V48.6182C89.8881 48.6182 89.5308 48.6978 89.2401 48.8533ZM93.1152 48.6181C93.7169 48.6181 94.1779 48.768 94.5 49.0698C94.8203 49.3716 94.9814 49.8159 94.9814 50.4047V53.2596H94.3871V52.5412C94.2445 52.78 94.0372 52.967 93.7668 53.1003C93.4965 53.2336 93.1744 53.3003 92.8023 53.3003C92.2876 53.3003 91.8784 53.1781 91.5748 52.9337C91.2711 52.6893 91.1193 52.3653 91.1193 51.9617C91.1193 51.5581 91.26 51.2563 91.5433 51.0175C91.8266 50.7787 92.2765 50.6583 92.8967 50.6583H94.3593V50.3769C94.3593 49.9807 94.2482 49.6808 94.0242 49.4734C93.802 49.2642 93.4799 49.1605 93.0559 49.1605C92.7634 49.1605 92.482 49.2105 92.2117 49.3068C91.9432 49.4031 91.7136 49.5327 91.5211 49.7011L91.2434 49.2383C91.4748 49.0402 91.7544 48.8865 92.0802 48.7791C92.4098 48.6718 92.7541 48.6162 93.1133 48.6162L93.1152 48.6181ZM92.8985 52.8097C93.2485 52.8097 93.5484 52.7301 93.7965 52.5708C94.0483 52.4079 94.2371 52.1765 94.3593 51.8729V51.1212H92.9133C92.1265 51.1212 91.7321 51.3952 91.7321 51.9432C91.7321 52.2135 91.834 52.4246 92.0376 52.5801C92.2431 52.7338 92.5301 52.8115 92.8985 52.8115V52.8097ZM98.238 53.8076L100.541 48.6514H100.539H99.9265L98.1954 52.5671L96.4588 48.6514H95.8108L97.8714 53.2484L97.6715 53.6965C97.5419 53.9742 97.403 54.1704 97.2549 54.2871C97.1049 54.4056 96.9254 54.4648 96.7143 54.4648C96.3884 54.4648 96.107 54.3463 95.8737 54.113L95.5849 54.5796C95.7275 54.7185 95.8941 54.8221 96.0867 54.8925C96.2792 54.9628 96.4847 54.9999 96.7069 54.9999C97.0513 54.9999 97.3456 54.9073 97.59 54.7259C97.8344 54.5444 98.0492 54.2389 98.238 53.8076ZM105.035 47.689H102.88V47.1299H107.836V47.689H105.679V53.2581H105.035V47.689ZM109.985 48.8533C109.696 49.0107 109.48 49.2439 109.334 49.555V48.6533H108.739V53.2597H109.359V50.9139C109.359 50.377 109.497 49.9586 109.769 49.6605C110.045 49.3624 110.424 49.2125 110.911 49.2125L111.057 49.2236V48.6182C110.633 48.6182 110.276 48.6978 109.985 48.8533ZM116.4 48.6522V53.2586H115.802V52.418C115.639 52.6994 115.415 52.9161 115.127 53.0697C114.842 53.2234 114.514 53.3012 114.147 53.3012C113.547 53.3012 113.073 53.1345 112.724 52.7994C112.375 52.4625 112.203 51.97 112.203 51.322V48.6522H112.829V51.259C112.829 51.746 112.949 52.1144 113.188 52.3662C113.427 52.6161 113.768 52.7402 114.21 52.7402C114.697 52.7402 115.079 52.5939 115.36 52.2995C115.64 52.0052 115.78 51.5923 115.78 51.0646V48.6504H116.4V48.6522ZM118.307 53.1373C118.648 53.2465 119.005 53.3002 119.379 53.3002H119.377C119.972 53.3002 120.435 53.1817 120.77 52.9447C121.107 52.7077 121.275 52.3893 121.275 51.9875C121.275 51.6895 121.196 51.4562 121.04 51.2859C120.883 51.1155 120.694 50.997 120.47 50.9267C120.248 50.8563 119.953 50.7878 119.587 50.7175C119.29 50.6638 119.059 50.6138 118.889 50.5638C118.72 50.5157 118.578 50.4379 118.461 50.3324C118.346 50.2268 118.291 50.088 118.291 49.9121C118.291 49.6825 118.393 49.4992 118.592 49.3604C118.794 49.2197 119.094 49.1475 119.49 49.1475C120.016 49.1475 120.47 49.2808 120.848 49.5455L121.122 49.0438C120.929 48.9142 120.683 48.8124 120.385 48.7346C120.087 48.655 119.789 48.6143 119.49 48.6143C118.92 48.6143 118.472 48.7383 118.152 48.9845C117.83 49.2289 117.67 49.5418 117.67 49.9251C117.67 50.2361 117.75 50.4805 117.909 50.6545C118.072 50.8304 118.267 50.9544 118.493 51.0285C118.722 51.1007 119.022 51.1711 119.396 51.2414C119.676 51.2877 119.901 51.3358 120.072 51.3877C120.242 51.4377 120.381 51.5099 120.492 51.608C120.603 51.7043 120.659 51.8357 120.659 52.0024C120.659 52.2412 120.557 52.4282 120.357 52.5615C120.157 52.6929 119.846 52.7577 119.424 52.7577C119.109 52.7577 118.805 52.7114 118.513 52.6152C118.22 52.517 117.98 52.393 117.787 52.2412L117.506 52.7318C117.698 52.8947 117.965 53.0299 118.307 53.1373ZM124.852 52.9767L124.85 52.9784L124.63 52.5342C124.541 52.6101 124.437 52.6675 124.317 52.7083C124.199 52.749 124.075 52.7694 123.947 52.7694C123.689 52.7694 123.491 52.699 123.352 52.5564C123.215 52.412 123.149 52.2028 123.149 51.927V49.1776H124.548V48.6537H123.149V47.6465H122.529V48.6537H121.707V49.1776H122.529V51.9621C122.529 52.388 122.645 52.7194 122.88 52.9526C123.114 53.1841 123.449 53.3007 123.88 53.3007C124.065 53.3007 124.245 53.2729 124.417 53.2192C124.586 53.164 124.732 53.0831 124.85 52.9784L124.85 52.9786L124.852 52.9767ZM129.423 52.9098C129.912 53.1782 130.46 53.3115 131.067 53.3115V53.3097C131.521 53.3097 131.943 53.2319 132.332 53.0783C132.719 52.9209 133.046 52.6969 133.315 52.4062L132.906 51.9933C132.432 52.4858 131.828 52.7302 131.093 52.7302C130.606 52.7302 130.166 52.621 129.769 52.3988C129.373 52.1748 129.062 51.8711 128.836 51.4879C128.612 51.1028 128.501 50.6659 128.501 50.1882C128.501 49.7105 128.612 49.2792 128.836 48.8959C129.062 48.509 129.373 48.2072 129.769 47.985C130.166 47.761 130.606 47.6499 131.093 47.6499C131.821 47.6499 132.424 47.8924 132.906 48.3794L133.315 47.9665C133.046 47.674 132.721 47.4518 132.336 47.3C131.95 47.1482 131.53 47.0723 131.075 47.0723C130.466 47.0723 129.918 47.2074 129.427 47.4777C128.938 47.7462 128.555 48.1165 128.277 48.5923C128 49.0699 127.861 49.5976 127.861 50.1901C127.861 50.7825 128 51.3157 128.277 51.7915C128.555 52.2673 128.936 52.6395 129.423 52.9098ZM136.453 53.3004C136.007 53.3004 135.607 53.2004 135.25 52.9986C134.894 52.7987 134.615 52.521 134.409 52.1655C134.205 51.8082 134.104 51.4045 134.104 50.9547C134.104 50.5048 134.205 50.103 134.409 49.7475C134.615 49.3902 134.896 49.1125 135.25 48.9144C135.607 48.7163 136.007 48.6182 136.453 48.6182C136.899 48.6182 137.294 48.7181 137.649 48.9144C138.006 49.1125 138.286 49.3902 138.486 49.7475C138.688 50.103 138.791 50.5048 138.791 50.9547C138.791 51.4045 138.69 51.8082 138.486 52.1655C138.286 52.521 138.006 52.7987 137.649 52.9986C137.294 53.1986 136.896 53.3004 136.453 53.3004ZM136.453 52.7487C136.779 52.7487 137.071 52.6746 137.333 52.5284C137.592 52.3802 137.794 52.1673 137.938 51.8915C138.084 51.6175 138.158 51.3046 138.158 50.9547C138.158 50.6047 138.084 50.2937 137.938 50.0178C137.794 49.7438 137.592 49.5309 137.333 49.3846C137.071 49.2365 136.779 49.1606 136.453 49.1606C136.127 49.1606 135.833 49.2365 135.574 49.3846C135.313 49.5309 135.109 49.742 134.961 50.0178C134.811 50.2937 134.737 50.6066 134.737 50.9547C134.737 51.3027 134.811 51.6175 134.961 51.8915C135.109 52.1673 135.314 52.3802 135.574 52.5284C135.833 52.6746 136.125 52.7487 136.453 52.7487ZM147.165 49.1199C146.836 48.787 146.385 48.6185 145.807 48.6182C145.398 48.6184 145.034 48.7054 144.716 48.8774C144.399 49.0495 144.157 49.2865 143.987 49.5902C143.844 49.268 143.633 49.0273 143.35 48.8644C143.066 48.7015 142.724 48.6182 142.346 48.6182C141.968 48.6182 141.632 48.6941 141.339 48.8459C141.046 48.9977 140.821 49.2143 140.656 49.4939V48.6533H140.062V53.2597H140.682V50.8417C140.682 50.3233 140.821 49.916 141.098 49.6235C141.376 49.3273 141.75 49.1791 142.22 49.1791C142.646 49.1791 142.974 49.305 143.203 49.5568C143.435 49.8068 143.551 50.1734 143.551 50.6529V53.2597H144.177V50.8417C144.177 50.3233 144.314 49.916 144.586 49.6235C144.86 49.3273 145.238 49.1791 145.716 49.1791C146.138 49.1791 146.462 49.305 146.691 49.5568C146.923 49.8068 147.04 50.1734 147.04 50.6529V53.2597H147.66V50.5899C147.66 49.9419 147.495 49.4513 147.165 49.1199ZM151.725 48.6182C152.157 48.6182 152.547 48.7163 152.897 48.9107C153.247 49.1069 153.519 49.3828 153.719 49.7401C153.919 50.0956 154.021 50.4992 154.021 50.9547C154.021 51.4101 153.921 51.8248 153.719 52.1821C153.521 52.5376 153.249 52.8135 152.901 53.0079C152.553 53.2041 152.162 53.3004 151.725 53.3004C151.351 53.3004 151.016 53.2226 150.715 53.069C150.413 52.9153 150.167 52.6894 149.974 52.3895V54.9537H149.354V48.6515H149.948V49.5624C150.135 49.2588 150.381 49.0255 150.689 48.8644C150.994 48.6996 151.34 48.6182 151.725 48.6182ZM151.683 52.7487C152.001 52.7487 152.292 52.6746 152.555 52.5284C152.82 52.3802 153.025 52.1673 153.171 51.8915C153.32 51.6175 153.395 51.3046 153.395 50.9547C153.395 50.6047 153.32 50.2955 153.171 50.0252C153.025 49.7531 152.818 49.542 152.555 49.3884C152.292 49.2365 152.001 49.1606 151.683 49.1606C151.364 49.1606 151.059 49.2365 150.8 49.3884C150.539 49.5402 150.335 49.7531 150.187 50.0252C150.041 50.2955 149.967 50.6066 149.967 50.9547C149.967 51.3027 150.041 51.6175 150.187 51.8915C150.335 52.1673 150.541 52.3802 150.8 52.5284C151.059 52.6746 151.353 52.7487 151.683 52.7487ZM158.283 49.0698C157.961 48.768 157.5 48.6181 156.898 48.6181L156.896 48.6162C156.537 48.6162 156.193 48.6718 155.863 48.7791C155.538 48.8865 155.258 49.0402 155.027 49.2383L155.304 49.7011C155.497 49.5327 155.726 49.4031 155.995 49.3068C156.265 49.2105 156.547 49.1605 156.839 49.1605C157.263 49.1605 157.585 49.2642 157.807 49.4734C158.031 49.6808 158.142 49.9807 158.142 50.3769V50.6583H156.68C156.06 50.6583 155.61 50.7787 155.326 51.0175C155.043 51.2563 154.902 51.5581 154.902 51.9617C154.902 52.3653 155.054 52.6893 155.358 52.9337C155.662 53.1781 156.071 53.3003 156.585 53.3003C156.958 53.3003 157.28 53.2336 157.55 53.1003C157.82 52.967 158.028 52.78 158.17 52.5412V53.2596H158.765V50.4047C158.765 49.8159 158.603 49.3716 158.283 49.0698ZM157.58 52.5708C157.332 52.7301 157.032 52.8097 156.682 52.8097V52.8115C156.313 52.8115 156.026 52.7338 155.821 52.5801C155.617 52.4246 155.515 52.2135 155.515 51.9432C155.515 51.3952 155.91 51.1212 156.697 51.1212H158.142V51.8729C158.02 52.1765 157.831 52.4079 157.58 52.5708ZM162.802 48.6182C163.381 48.6184 163.838 48.7868 164.178 49.1236C164.519 49.4587 164.691 49.9475 164.691 50.5899V53.2597H164.071V50.6529C164.071 50.1734 163.95 49.8068 163.712 49.5568C163.473 49.305 163.13 49.1791 162.69 49.1791C162.193 49.1791 161.799 49.3273 161.508 49.6235C161.22 49.916 161.077 50.3233 161.077 50.8417V53.2597H160.457V48.6533H161.051V49.5013C161.221 49.2217 161.456 49.0033 161.756 48.8496C162.056 48.696 162.406 48.6183 162.802 48.6182ZM167.949 53.8076L170.253 48.6514H170.251H169.638L167.907 52.5671L166.17 48.6514H165.522L167.583 53.2484L167.383 53.6965C167.253 53.9742 167.114 54.1704 166.966 54.2871C166.816 54.4056 166.637 54.4648 166.426 54.4648C166.1 54.4648 165.818 54.3463 165.585 54.113L165.296 54.5796C165.439 54.7185 165.606 54.8221 165.798 54.8925C165.991 54.9628 166.196 54.9999 166.418 54.9999C166.763 54.9999 167.057 54.9073 167.301 54.7259C167.546 54.5444 167.761 54.2389 167.949 53.8076ZM171.201 52.3467C171.334 52.3467 171.445 52.3911 171.532 52.4818C171.619 52.5726 171.663 52.6836 171.663 52.8169C171.663 52.8891 171.652 52.9669 171.632 53.0484C171.612 53.128 171.58 53.2206 171.539 53.3261L171.173 54.5332H170.752L171.049 53.265C170.956 53.2372 170.88 53.1835 170.821 53.1076C170.764 53.028 170.736 52.9317 170.736 52.8188C170.736 52.6855 170.778 52.5744 170.867 52.4837C170.954 52.3948 171.065 52.3485 171.199 52.3485L171.201 52.3467ZM176.06 47.1279H175.412V53.2561H179.493V52.697H176.06V47.1279ZM180.571 47.1279H181.219V52.697H184.651V53.2561H180.571V47.1279ZM186.745 52.9098C187.234 53.1782 187.782 53.3115 188.389 53.3115V53.3097C188.843 53.3097 189.265 53.2319 189.654 53.0783C190.041 52.9209 190.368 52.6969 190.637 52.4062L190.227 51.9933C189.754 52.4858 189.15 52.7302 188.415 52.7302C187.928 52.7302 187.487 52.621 187.091 52.3988C186.695 52.1748 186.384 51.8711 186.158 51.4879C185.934 51.1028 185.823 50.6659 185.823 50.1882C185.823 49.7105 185.934 49.2792 186.158 48.8959C186.384 48.509 186.695 48.2072 187.091 47.985C187.487 47.761 187.928 47.6499 188.415 47.6499C189.143 47.6499 189.746 47.8924 190.227 48.3794L190.637 47.9665C190.368 47.674 190.042 47.4518 189.657 47.3C189.272 47.1482 188.852 47.0723 188.396 47.0723C187.787 47.0723 187.239 47.2074 186.749 47.4777C186.26 47.7462 185.877 48.1165 185.599 48.5923C185.321 49.0699 185.182 49.5976 185.182 50.1901C185.182 50.7825 185.321 51.3157 185.599 51.7915C185.877 52.2673 186.258 52.6395 186.745 52.9098Z" fill="url(#paint0_linear_1776_1455)"/>
<defs>
<linearGradient id="paint0_linear_1776_1455" x1="88.1128" y1="-2.58122" x2="104.083" y2="48.4066" gradientUnits="userSpaceOnUse">
<stop stop-color="#F5426E"/>
<stop offset="1" stop-color="#81D8D0"/>
</linearGradient>
</defs>
</svg>
