<svg width="106" height="106" viewBox="0 0 106 106" fill="none" xmlns="http://www.w3.org/2000/svg">
<g id="icon">
<path id="Vector" d="M37.8996 31.1984C41.6082 31.1984 44.6147 28.192 44.6147 24.4834C44.6147 20.7747 41.6082 17.7683 37.8996 17.7683C34.191 17.7683 31.1846 20.7747 31.1846 24.4834C31.1846 28.192 34.191 31.1984 37.8996 31.1984Z" stroke="#81D8D0" stroke-width="2" stroke-linecap="round" stroke-linejoin="round"/>
<path id="Vector_2" d="M84.8714 91.567V78.1536L93.2568 71.4386V52.9972L105 44.6118V22.7962L93.2568 11.0532H81.5139L73.1284 0.997314H46.2849L37.8994 9.38278V17.7682" stroke="#81D8D0" stroke-width="2" stroke-linecap="round" stroke-linejoin="round"/>
<path id="Vector_3" d="M84.8713 104.997C88.5799 104.997 91.5864 101.991 91.5864 98.2819C91.5864 94.5733 88.5799 91.5669 84.8713 91.5669C81.1627 91.5669 78.1562 94.5733 78.1562 98.2819C78.1562 101.991 81.1627 104.997 84.8713 104.997Z" stroke="#81D8D0" stroke-width="2" stroke-linecap="round" stroke-linejoin="round"/>
<path id="Vector_4" d="M27.8435 9.38306H17.7709L1 24.4836V51.3104L11.0559 61.383H12.743" stroke="#81D8D0" stroke-width="2" stroke-linecap="round" stroke-linejoin="round"/>
<path id="Vector_5" d="M12.743 37.8967H1" stroke="#81D8D0" stroke-width="2" stroke-linecap="round" stroke-linejoin="round"/>
<path id="Vector_6" d="M19.4582 44.5451C23.1668 44.5451 26.1733 41.5387 26.1733 37.83C26.1733 34.1214 23.1668 31.115 19.4582 31.115C15.7496 31.115 12.7432 34.1214 12.7432 37.83C12.7432 41.5387 15.7496 44.5451 19.4582 44.5451Z" stroke="#81D8D0" stroke-width="2" stroke-linecap="round" stroke-linejoin="round"/>
<path id="Vector_7" d="M86.5422 39.5839C90.2508 39.5839 93.2573 36.5775 93.2573 32.8689C93.2573 29.1602 90.2508 26.1538 86.5422 26.1538C82.8336 26.1538 79.8271 29.1602 79.8271 32.8689C79.8271 36.5775 82.8336 39.5839 86.5422 39.5839Z" stroke="#81D8D0" stroke-width="2" stroke-linecap="round" stroke-linejoin="round"/>
<path id="Vector_8" d="M22.7988 54.6676V66.4106L32.8714 76.4831H51.3127L61.3853 66.4106V51.31L80.9458 36.5603" stroke="#81D8D0" stroke-width="2" stroke-linecap="round" stroke-linejoin="round"/>
<path id="Vector_9" d="M42.9277 52.9973V44.6119L59.7154 32.8689V24.4834" stroke="#81D8D0" stroke-width="2" stroke-linecap="round" stroke-linejoin="round"/>
<path id="Vector_10" d="M42.927 66.4272C46.6356 66.4272 49.642 63.4207 49.642 59.7121C49.642 56.0035 46.6356 52.9971 42.927 52.9971C39.2183 52.9971 36.2119 56.0035 36.2119 59.7121C36.2119 63.4207 39.2183 66.4272 42.927 66.4272Z" stroke="#81D8D0" stroke-width="2" stroke-linecap="round" stroke-linejoin="round"/>
<path id="Vector_11" d="M59.7151 24.4836C63.4237 24.4836 66.4301 21.4771 66.4301 17.7685C66.4301 14.0599 63.4237 11.0535 59.7151 11.0535C56.0064 11.0535 53 14.0599 53 17.7685C53 21.4771 56.0064 24.4836 59.7151 24.4836Z" stroke="#81D8D0" stroke-width="2" stroke-linecap="round" stroke-linejoin="round"/>
<path id="Vector_12" d="M56.3574 71.4385L64.7429 79.8406V86.539" stroke="#81D8D0" stroke-width="2" stroke-linecap="round" stroke-linejoin="round"/>
<path id="Vector_13" d="M64.7424 99.9692C68.451 99.9692 71.4575 96.9627 71.4575 93.2541C71.4575 89.5455 68.451 86.5391 64.7424 86.5391C61.0338 86.5391 58.0273 89.5455 58.0273 93.2541C58.0273 96.9627 61.0338 99.9692 64.7424 99.9692Z" stroke="#81D8D0" stroke-width="2" stroke-linecap="round" stroke-linejoin="round"/>
<path id="Vector_14" d="M76.4856 68.0976C80.1942 68.0976 83.2006 65.0912 83.2006 61.3825C83.2006 57.6739 80.1942 54.6675 76.4856 54.6675C72.7769 54.6675 69.7705 57.6739 69.7705 61.3825C69.7705 65.0912 72.7769 68.0976 76.4856 68.0976Z" stroke="#81D8D0" stroke-width="2" stroke-linecap="round" stroke-linejoin="round"/>
<path id="Vector_15" d="M93.2571 61.3823H83.1846" stroke="#81D8D0" stroke-width="2" stroke-linecap="round" stroke-linejoin="round"/>
</g>
</svg>
