<svg width="488" height="147" viewBox="0 0 488 147" fill="none" xmlns="http://www.w3.org/2000/svg">
<path d="M97.1061 97.0948C70.8194 96.8284 49.5814 75.5749 49.315 49.3037H97.1061V97.0948Z" fill="#2F3942" stroke="#81D8D0"/>
<path d="M49.315 0.508789H97.1061V48.2999C70.835 48.0335 49.5815 26.7956 49.315 0.508789Z" fill="#2F3942" stroke="#81D8D0"/>
<path d="M438.707 49.3037C438.44 75.5747 417.187 96.8282 390.916 97.0948V49.3037H438.707Z" fill="#2F3942" stroke="#81D8D0"/>
<path d="M390.916 48.2999V0.508789H438.707C438.44 26.7798 417.187 48.0333 390.916 48.2999Z" fill="#2F3942" stroke="#81D8D0"/>
<path d="M0.502533 0.526367H48.2936V48.3175C22.0225 48.0511 0.768981 26.8131 0.502533 0.526367Z" fill="#2F3942" stroke="#81D8D0"/>
<path d="M487.497 0.508789C487.231 26.7956 465.977 48.0335 439.706 48.2999V0.508789H487.497Z" fill="#2F3942" stroke="#81D8D0"/>
<path d="M277.783 14.3007L243.989 48.0947L210.195 14.3008C228.973 -4.10035 259.021 -4.10014 277.783 14.3007Z" fill="#2F3942" stroke="#81D8D0"/>
<path d="M194.708 48.8024V50.0099L194.727 49.9912C194.942 72.368 209.999 91.1966 230.531 97.0961H146.415C119.914 97.0961 98.3918 75.7558 98.1236 49.3024H146.415V48.8024V48.3024C119.914 48.3024 98.3919 26.9462 98.1236 0.508789H146.415C173.082 0.508789 194.708 22.1348 194.708 48.8024Z" fill="#2F3942" stroke="#81D8D0"/>
<path d="M210.216 132.12L244.01 98.3259L277.803 132.12C259.026 150.521 228.977 150.521 210.216 132.12Z" fill="#2F3942" stroke="#81D8D0"/>
<path d="M257.503 97.1124C278.183 91.1704 293.309 72.1122 293.309 49.5231V48.8024C293.309 22.1349 314.935 0.508789 341.619 0.508789H389.91C389.642 26.9621 368.12 48.3027 341.619 48.3188L341.619 49.3188H341.62H389.91C389.642 75.7562 368.12 97.1124 341.619 97.1124H257.503Z" fill="#2F3942" stroke="#81D8D0"/>
</svg>
