<svg width="37" height="37" viewBox="0 0 37 37" fill="none" xmlns="http://www.w3.org/2000/svg">
<g id="Group 34">
<g id="Group 32">
<g id="&#240;&#159;&#166;&#134; icon &#34;rounded linkedin&#34;">
<path id="Vector" d="M27.7611 0C29.0283 0 30.2218 0.24313 31.3417 0.729391C32.4616 1.21565 33.4415 1.87873 34.2814 2.71864C35.1213 3.55854 35.7843 4.53843 36.2706 5.6583C36.7569 6.77818 37 7.97172 37 9.23895V27.7168C37 28.9841 36.7569 30.185 36.2706 31.3196C35.7843 32.4542 35.1213 33.4415 34.2814 34.2814C33.4415 35.1213 32.4616 35.7843 31.3417 36.2706C30.2218 36.7569 29.0283 37 27.7611 37H9.23895C7.97172 37 6.77818 36.7569 5.6583 36.2706C4.53843 35.7843 3.55854 35.1213 2.71864 34.2814C1.87873 33.4415 1.21565 32.4542 0.729391 31.3196C0.24313 30.185 0 28.9841 0 27.7168V9.23895C0 7.97172 0.24313 6.77818 0.729391 5.6583C1.21565 4.53843 1.87873 3.55854 2.71864 2.71864C3.55854 1.87873 4.53843 1.21565 5.6583 0.729391C6.77818 0.24313 7.97172 0 9.23895 0H27.7611ZM12.7312 13.8805H8.08961V28.9104H12.7312V13.8805ZM10.4325 12.687C11.0514 12.687 11.5892 12.4659 12.046 12.0239C12.5028 11.5818 12.7312 11.0366 12.7312 10.3883C12.7312 9.73994 12.5028 9.19474 12.046 8.75269C11.5892 8.31063 11.0514 8.08961 10.4325 8.08961C9.78415 8.08961 9.23158 8.31063 8.77479 8.75269C8.318 9.19474 8.08961 9.73994 8.08961 10.3883C8.08961 11.0366 8.318 11.5818 8.77479 12.0239C9.23158 12.4659 9.78415 12.687 10.4325 12.687ZM28.9104 20.2019C28.9104 19.141 28.6157 18.1021 28.0263 17.0854C27.4369 16.0687 26.6706 15.2951 25.7276 14.7646C24.873 14.2931 23.8783 14.0426 22.7437 14.0131C21.6091 13.9837 20.585 14.1752 19.6714 14.5878V13.8805H15.0299V28.9104H19.6714V19.7157L21.5723 18.7873C21.808 18.6695 22.1322 18.6105 22.5448 18.6105C22.9574 18.6105 23.2668 18.6842 23.4731 18.8315C23.6499 18.92 23.8268 19.1115 24.0036 19.4062C24.1804 19.7009 24.2688 19.9661 24.2688 20.2019V28.9104H28.9104V20.2019Z" fill="#D0D1DB"/>
</g>
</g>
</g>
</svg>
